# xmcd
#
# Track frame offsets:
#	150
#	15074
#	30250
#	47578
#	65223
#	82221
#	100330
#	114004
#	130060
#	142400
#	157298
#	173034
#	187108
#	201353
#	214855
#	229593
#	244926
#
# Disc length: 3406 seconds
#
# Revision: 4
# Processed by: cddbd v1.5.2PL0 Copyright (c) Steve Scherf et al.
# Submitted via: EasyCDDAExtractor 15.3.0.1
#
DISCID=f10d4c11
DTITLE=Britney Spears - Glory (Deluxe Edition)
DYEAR=2016
DGENRE=Pop
TTITLE0=Invitation
TTITLE1=Do You Wanna Come Over
TTITLE2=Make Me... (Featuring G-Eazy)
TTITLE3=Private Show
TTITLE4=Man On The Moon
TTITLE5=Just Luv Me
TTITLE6=Clumsy
TTITLE7=Slumber Party
TTITLE8=Just Like Me
TTITLE9=Love Me Down
TTITLE10=Hard To Forget Ya
TTITLE11=What You Need
TTITLE12=Better (Bonus Track)
TTITLE13=Change Your Mind (No Seas Cortes) (Bonus Track)
TTITLE14=Liar (Bonus Track)
TTITLE15=If I'm Dancing (Bonus Track)
TTITLE16=Coupure Electrique (Bonus Track)
EXTD=
EXTT0=
EXTT1=
EXTT2=
EXTT3=
EXTT4=
EXTT5=
EXTT6=
EXTT7=
EXTT8=
EXTT9=
EXTT10=
EXTT11=
EXTT12=
EXTT13=
EXTT14=
EXTT15=
EXTT16=
PLAYORDER=
